<svg xmlns="http://www.w3.org/2000/svg" version="1.1" xmlns:xlink="http://www.w3.org/1999/xlink" xmlns:svgjs="http://svgjs.dev/svgjs" width="1500" height="1890" viewBox="0 0 1500 1890"><g transform="matrix(1,0,0,1,0.42358795947495764,0.7665951868088996)"><svg viewBox="0 0 196 247" data-background-color="#ffffff" preserveAspectRatio="xMidYMid meet" height="1890" width="1500" xmlns="http://www.w3.org/2000/svg" xmlns:xlink="http://www.w3.org/1999/xlink"><g id="tight-bounds" transform="matrix(1,0,0,1,-0.05529544679956189,-0.09997365579206985)"><svg viewBox="0 0 196.11064427350425 247.2" height="247.2" width="196.11064427350425"><g><svg viewBox="0 0 196.11064427350425 247.2" height="247.2" width="196.11064427350425"><g><svg viewBox="0 0 196.11064427350425 247.2" height="247.2" width="196.11064427350425"><g id="textblocktransform"><svg viewBox="0 0 196.11064427350425 247.2" height="247.2" width="196.11064427350425" id="textblock"><g><svg viewBox="0 0 196.11064427350425 247.2" height="247.2" width="196.11064427350425"><path d="M195.652 53.02C194.73 27.36 192.102 20.227 192.102 20.227 184.035-6.202 173.967-0.506 164.923 3.292 148.954 3.446 133.051 9.091 117.119 12.119 83.68 12.581 49.954 4.986 16.681 23.717 13.556 29.464-3.243 24.846 0.556 56.304 1.552 69.39 5.184 83.913 5.074 95.922 5.571 98.026 6.263 93.202 6.558 96.23 7.59 104.39 9.278 100.541 10.661 105.365 8.734 118.246 10.117 128.971 11.435 140.21 9.112 143.135 6.134 141.749 4.797 151.449 4.659 158.479 3.912 157.145 3.091 156.837 2.492 156.632 1.284 157.402 1.487 159.608 2.179 167.152-0.79 171.514 1.072 178.904-0.209 186.91 1.957 193.838 1.662 202.511 1.625 204.255 1.828 205.744 2.151 206.154 3.58 208.361 1.496 212.672 1.718 217.342 16.377 249.262 32.281 227.195 47.299 241.872 51.199 231.608 48.267 245.516 49.825 243.36 51.042 240.846 51.927 251.263 53.301 245.362 53.513 243.668 53.191 239.665 53.947 240.435 54.343 240.846 54.693 240.743 54.749 238.382 54.832 234.841 54.103 237.048 53.91 235.201 56.003 225.861 55.486 248.081 57.45 247.158 57.358 244.438 56.786 240.538 57.957 241.051 59.119 237.151 59.156 233.918 60.188 242.693 60.225 244.592 60.409 245.926 60.704 246.85 63.931 237.305 67.14 250.237 70.523 245.926 72.598 241.205 74.589 248.492 76.691 246.696 77.429 245.259 78.176 242.693 78.886 247.004 87.58 247.928 96.845 244.079 105.088 247.158 127.113 241.41 150.651 249.518 173.875 241.923 179.351 238.998 185.04 234.841 190.378 231.506 190.378 231.506 194.702 222.371 194.702 181.316S195.624 145.393 195.762 112.703C195.9 80.013 196.546 78.679 195.624 53.02Z" opacity="1" fill="#ff0000" data-fill-palette-color="tertiary"></path><g transform="matrix(1,0,0,1,55.768319999999996,26.230666666666668)"><svg width="84.57400427350426" viewBox="1.25 -30.65 13.55 31.2" height="194.73866666666666" data-palette-color="#ffffff"><path d="M10.75-7.6L10.75-14.45 14.8-14.45 14.8-7.4Q14.8-4.4 13.68-2.65 12.55-0.9 10.7-0.18 8.85 0.55 6.7 0.55L6.7 0.55Q3.9 0.55 2.58-0.13 1.25-0.8 1.25-1.9L1.25-1.9Q1.25-2.6 1.55-3.1 1.85-3.6 2.1-3.85L2.1-3.85Q2.85-3.5 3.93-3.2 5-2.9 6.1-2.9L6.1-2.9Q8.35-2.9 9.55-4 10.75-5.1 10.75-7.6L10.75-7.6ZM14.8-28.8L14.8-13.25 10.75-13.25 10.75-30.3Q11-30.4 11.53-30.53 12.05-30.65 12.6-30.65L12.6-30.65Q13.7-30.65 14.25-30.23 14.8-29.8 14.8-28.8L14.8-28.8Z" opacity="1" transform="matrix(1,0,0,1,0,0)" fill="#ffffff" class="wordmark-text-0" data-fill-palette-color="quaternary" id="text-0"></path></svg></g></svg></g></svg></g></svg></g><g></g></svg></g><defs></defs></svg><rect width="196.11064427350425" height="247.2" fill="none" stroke="none" visibility="hidden"></rect></g></svg></g></svg>